# xmcd
#
# Track frame offsets:
#	150
#	14788
#	34150
#	49938
#	61888
#	72075
#	84263
#	97263
#	112525
#	121888
#	133338
#	144213
#	156263
#
# Disc length: 2245 seconds
#
# Revision: 2
# Processed by: cddbd v1.5.2PL0 Copyright (c) Steve Scherf et al.
# Submitted via: audiograbber 1.83.01
#
DISCID=af08c30d
DTITLE=Otis Redding - Live
DYEAR=1965
DGENRE=Soul
TTITLE0=I've Been Loving You
TTITLE1=A Change Is Gonna Come
TTITLE2=Rock Me Baby
TTITLE3=Old Man Trouble
TTITLE4=Respect
TTITLE5=Satisfaction
TTITLE6=Keep Your Arms Around Me
TTITLE7=Woman, Lover, Freind
TTITLE8=Home In Your Heart
TTITLE9=These Arms Of Mine
TTITLE10=Security
TTITLE11=Chained And Bound
TTITLE12=Mr.pitiful
EXTD=
EXTT0=
EXTT1=
EXTT2=
EXTT3=
EXTT4=
EXTT5=
EXTT6=
EXTT7=
EXTT8=
EXTT9=
EXTT10=
EXTT11=
EXTT12=
PLAYORDER=
